<svg width="181" height="27" viewBox="0 0 181 27" fill="none" xmlns="http://www.w3.org/2000/svg">
<g clip-path="url(#clip0_328_1702)">
<path d="M44.6245 2.43018H1.4834V24.0302H44.6245V2.43018Z" fill="#F6F6F6"/>
<path d="M41.3889 0C39.2318 0 16.3943 0 3.64045 0C2.56193 0 1.4834 1.08 1.4834 2.16V5.4H44.6245C44.6245 5.4 44.6245 10.4144 44.6245 3.24C44.6245 1.08 43.5459 0 41.3889 0Z" fill="#25256A"/>
<path d="M1.4834 21.6001C1.4834 21.6001 1.4834 21.6001 1.4834 23.7601C1.4834 25.9201 2.56193 27.0001 4.71898 27.0001C16.7508 27.0001 39.2318 27.0001 41.3889 27.0001C43.5459 27.0001 44.6245 25.9201 44.6245 23.7601V21.6001H1.4834Z" fill="#FAB615"/>
<path d="M31.5784 8.0412C30.9736 7.809 30.0261 7.56006 28.843 7.56006C25.8274 7.56006 23.703 9.11391 23.6852 11.3409C23.6682 12.9871 25.2013 13.9053 26.3591 14.4534C27.5469 15.0148 27.9465 15.373 27.9408 15.8744C27.9333 16.6426 26.9917 16.9933 26.1151 16.9933C24.8934 16.9933 24.2444 16.8197 23.2425 16.3918L22.8491 16.2098L22.4209 18.7745C23.1335 19.0942 24.4518 19.3712 25.8204 19.3858C29.0282 19.3858 31.1109 17.8498 31.1346 15.4716C31.1462 14.1683 30.333 13.1766 28.5725 12.359C27.5056 11.829 26.8523 11.4753 26.8593 10.9386C26.8593 10.4623 27.4123 9.95334 28.6065 9.95334C29.6047 9.93741 30.3276 10.1602 30.8911 10.3921L31.1645 10.5244L31.5784 8.0412Z" fill="#25256A"/>
<path d="M39.4039 7.77002H37.0457C36.3152 7.77002 35.7687 7.97414 35.4475 8.72015L30.915 19.2191H34.1196C34.1196 19.2191 34.6435 17.8073 34.7621 17.4976C35.1124 17.4976 38.2258 17.5027 38.6707 17.5027C38.7619 17.9034 39.042 19.2191 39.042 19.2191H41.8737L39.4039 7.77002ZM35.6406 15.1542C35.893 14.4941 36.8566 11.9518 36.8566 11.9518C36.8386 11.9823 37.1071 11.2884 37.2611 10.8583L37.4676 11.8459C37.4676 11.8459 38.0519 14.5805 38.1741 15.1542H35.6406Z" fill="#25256A"/>
<path d="M17.459 19.2152L19.3672 7.75879H22.4189L20.5093 19.2152H17.459Z" fill="#25256A"/>
<path d="M14.8992 7.76785L11.9114 15.58L11.593 13.9924C11.0367 12.1624 9.30378 10.1792 7.36621 9.1867L10.0981 19.2059L13.3272 19.2021L18.1318 7.76758H14.8992" fill="#25256A"/>
<path d="M9.13983 7.76025H4.21878L4.17969 7.99866C8.00819 8.9469 10.5416 11.2387 11.5932 13.9921L10.5233 8.72739C10.3383 8.00217 9.80259 7.78563 9.13983 7.76025Z" fill="#FAB615"/>
<path d="M100.321 2.53223H57.1797V24.1322H100.321V2.53223Z" fill="#003473"/>
<path d="M97.0852 0.102051C94.9281 0.102051 72.0906 0.102051 59.3367 0.102051C58.2582 0.102051 57.1797 1.18205 57.1797 2.26205V5.50205H100.321C100.321 5.50205 100.321 10.5162 100.321 3.34205C100.321 1.18205 99.2422 0.102051 97.0852 0.102051Z" fill="#003473"/>
<path d="M57.1797 21.7021C57.1797 21.7021 57.1797 21.7021 57.1797 23.8621C57.1797 26.0221 58.2582 27.1021 60.4153 27.1021C72.447 27.1021 94.9281 27.1021 97.0852 27.1021C99.2422 27.1021 100.321 26.0221 100.321 23.8621V21.7021H57.1797Z" fill="#003473"/>
<path d="M70.9156 25.2182C77.361 25.2182 82.5861 19.9673 82.5861 13.49C82.5861 7.01264 77.361 1.76172 70.9156 1.76172C64.4702 1.76172 59.2451 7.01264 59.2451 13.49C59.2451 19.9673 64.4702 25.2182 70.9156 25.2182Z" fill="#ED1C2E"/>
<path d="M86.5844 1.76074C83.5683 1.76074 80.8211 2.9104 78.7492 4.79662C78.3278 5.18056 77.9347 5.59582 77.5717 6.03835H79.9289C80.2521 6.43201 80.5474 6.847 80.8186 7.28062H76.6811C76.4336 7.67968 76.2087 8.09305 76.0087 8.52235H81.4911C81.6782 8.92492 81.8432 9.33856 81.9851 9.76381H75.5152C75.3802 10.1694 75.2664 10.5833 75.1758 11.0061H82.3245C82.4952 11.8069 82.5861 12.6369 82.5861 13.4901C82.5861 14.792 82.3755 16.0446 81.9856 17.2158H75.5152C75.6563 17.6408 75.8218 18.0558 76.0089 18.4584H81.4914C81.2918 18.8871 81.067 19.301 80.8181 19.7003H76.6814C76.9516 20.1334 77.2487 20.5484 77.5717 20.9418H79.9289C79.5659 21.3838 79.172 21.7993 78.7498 22.1844C80.8211 24.07 83.5673 25.2197 86.5842 25.2197C93.0295 25.2197 98.2549 19.969 98.2549 13.4914C98.2549 7.01386 93.03 1.76074 86.5844 1.76074Z" fill="#FCB131"/>
<path d="M96.6992 20.0274C96.6992 19.8187 96.8683 19.6494 97.0764 19.6494C97.2851 19.6494 97.4528 19.8187 97.4528 20.0274C97.4528 20.2367 97.2851 20.4065 97.0764 20.4065C96.8683 20.4065 96.6992 20.2367 96.6992 20.0274ZM97.0764 20.3152C97.2342 20.3152 97.3625 20.1864 97.3625 20.0274C97.3625 19.8676 97.2342 19.7401 97.0764 19.7401C96.9187 19.7401 96.7898 19.8678 96.7898 20.0274C96.7898 20.1867 96.9187 20.3152 97.0764 20.3152ZM97.0255 20.1935H96.9481V19.8614H97.0883C97.1182 19.8614 97.1473 19.8614 97.1735 19.8773C97.2007 19.8962 97.2156 19.9283 97.2156 19.9607C97.2156 19.9988 97.1929 20.0336 97.1576 20.0471L97.2185 20.1937H97.1336L97.0821 20.062H97.0257V20.1935H97.0255ZM97.0255 20.0047H97.0686C97.0843 20.0047 97.101 20.0058 97.1166 19.9985C97.1285 19.9891 97.1352 19.9748 97.1352 19.9599C97.1352 19.9478 97.1266 19.9324 97.1166 19.9262C97.1029 19.9178 97.0818 19.92 97.0665 19.92H97.0255V20.0047Z" fill="#FCB131"/>
<path d="M68.1906 14.7733C68.0582 14.7579 67.9994 14.7538 67.9083 14.7538C67.1902 14.7538 66.8265 15.0011 66.8265 15.4906C66.8265 15.7922 67.0042 15.9837 67.2808 15.9837C67.7969 15.9829 68.1687 15.4893 68.1906 14.7733ZM69.1127 16.9289C68.9439 16.9289 68.0619 16.9289 68.0619 16.9289L68.0868 16.4275C67.7664 16.8236 67.3396 17.0129 66.7586 17.0129C66.0723 17.0129 65.6016 16.474 65.6016 15.6913C65.6016 14.5132 66.4202 13.8261 67.826 13.8261C67.97 13.8261 68.1539 13.8393 68.3424 13.8636C68.3817 13.7038 68.3925 13.6357 68.3925 13.5496C68.3925 13.2291 68.1722 13.1095 67.5801 13.1095C66.96 13.1022 66.4485 13.2583 66.239 13.3277C66.2516 13.2469 66.4142 12.2398 66.4142 12.2398C67.0454 12.053 67.462 11.9839 67.9306 11.9839C69.0181 11.9839 69.5948 12.4742 69.5935 13.4022C69.5959 13.6509 69.5544 13.9573 69.491 14.3607C69.3804 15.0605 69.1445 16.5636 69.1127 16.9289Z" fill="#003473"/>
<path d="M65.0709 16.9289H63.8044L64.53 12.3565L62.9093 16.9289H62.0456L61.9391 12.3824L61.1763 16.9289H59.9902L60.9811 10.9795H62.803L62.9136 14.3102L64.0245 10.9795H66.0518L65.0709 16.9289Z" fill="#003473"/>
<path d="M88.1503 14.7733C88.0181 14.7579 87.9594 14.7538 87.8682 14.7538C87.1494 14.7538 86.7875 15.0011 86.7875 15.4906C86.7875 15.7922 86.9644 15.9837 87.2408 15.9837C87.7571 15.9829 88.129 15.4893 88.1503 14.7733ZM89.0735 16.9289C88.9039 16.9289 88.023 16.9289 88.023 16.9289L88.047 16.4275C87.7261 16.8236 87.2996 17.0129 86.7199 17.0129C86.0323 17.0129 85.5615 16.474 85.5615 15.6913C85.5615 14.5132 86.3807 13.8261 87.7871 13.8261C87.9294 13.8261 88.1131 13.8393 88.3021 13.8636C88.3414 13.7038 88.3522 13.6357 88.3522 13.5496C88.3522 13.2291 88.1319 13.1095 87.5401 13.1095C86.9197 13.1022 86.4084 13.2583 86.1976 13.3277C86.2108 13.2469 86.3747 12.2398 86.3747 12.2398C87.0059 12.053 87.4223 11.9839 87.8906 11.9839C88.9791 11.9839 89.554 12.4742 89.5529 13.4022C89.555 13.6509 89.5143 13.9573 89.4502 14.3607C89.3407 15.0605 89.1048 16.5636 89.0735 16.9289Z" fill="#003473"/>
<path d="M74.744 16.8565C74.3972 16.9656 74.1268 17.0142 73.834 17.0142C73.1863 17.0142 72.8325 16.6403 72.8325 15.9509C72.8239 15.7374 72.9266 15.1742 73.0067 14.6612C73.0798 14.2097 73.5565 11.3599 73.5565 11.3599H74.8157L74.6687 12.0921H75.4294L75.2573 13.2555H74.4943C74.3481 14.1743 74.1394 15.3208 74.1376 15.4728C74.1376 15.7223 74.2697 15.8313 74.5709 15.8313C74.7154 15.8313 74.8273 15.8165 74.9125 15.7849L74.744 16.8565Z" fill="#003473"/>
<path d="M78.605 16.8166C78.1719 16.9499 77.7554 17.0147 77.3126 17.0137C75.9027 17.012 75.168 16.2712 75.168 14.8553C75.168 13.2023 76.1028 11.9844 77.373 11.9844C78.4111 11.9844 79.0741 12.6656 79.0741 13.7345C79.0741 14.0904 79.0294 14.436 78.9188 14.9247H76.411C76.3263 15.6267 76.7728 15.9183 77.5065 15.9183C77.956 15.9183 78.3631 15.8249 78.8153 15.614L78.605 16.8166ZM77.8969 13.9484C77.9042 13.8471 78.0306 13.0849 77.3105 13.0849C76.9098 13.0849 76.6229 13.3916 76.5064 13.9484H77.8969Z" fill="#003473"/>
<path d="M69.8727 13.621C69.8727 14.2323 70.1687 14.6546 70.8377 14.9721C71.3508 15.2137 71.4306 15.2858 71.4306 15.5059C71.4306 15.8075 71.2041 15.9441 70.7032 15.9441C70.3251 15.9441 69.9733 15.8844 69.5672 15.7527C69.5672 15.7527 69.4016 16.8189 69.3936 16.8702C69.6807 16.9328 69.9385 16.9909 70.7112 17.0136C72.0486 17.0136 72.6661 16.5019 72.6661 15.3963C72.6661 14.7312 72.4072 14.3416 71.7728 14.0473C71.2411 13.8033 71.1801 13.7484 71.1801 13.5216C71.1801 13.26 71.3913 13.1272 71.7997 13.1272C72.0486 13.1272 72.3889 13.1536 72.7106 13.1995L72.8901 12.0777C72.5631 12.0256 72.0648 11.9829 71.7755 11.9829C70.3586 11.9837 69.8684 12.7273 69.8727 13.621Z" fill="#003473"/>
<path d="M84.7675 12.1106C85.1194 12.1106 85.4472 12.2032 85.8994 12.4324L86.1068 11.1408C85.9207 11.067 85.2677 10.6372 84.7147 10.6372C83.8675 10.6372 83.1492 11.0611 82.6455 11.7582C81.9099 11.5136 81.608 12.0083 81.2372 12.5007L80.9077 12.5772C80.9328 12.4152 80.9555 12.2537 80.9476 12.0909H79.7844C79.6262 13.5886 79.3436 15.1041 79.1241 16.6023L79.0664 16.9287H80.3331C80.5456 15.5477 80.6605 14.6626 80.7319 14.0638L81.2084 13.7986C81.2814 13.5313 81.5033 13.4417 81.9504 13.4517C81.8922 13.767 81.8598 14.0991 81.8598 14.4442C81.8598 16.0278 82.7113 17.013 84.0748 17.013C84.4256 17.013 84.7279 16.9665 85.1946 16.8386L85.416 15.4832C84.9956 15.69 84.6526 15.788 84.3393 15.788C83.6022 15.788 83.1578 15.2418 83.1578 14.3389C83.1586 13.0289 83.8211 12.1106 84.7675 12.1106Z" fill="#003473"/>
<path d="M95.4943 10.9795L95.2117 12.6983C94.8666 12.2407 94.494 11.9091 94.0035 11.9091C93.3637 11.9091 92.7824 12.3959 92.4011 13.113C91.8702 13.0031 91.3226 12.8147 91.3226 12.8147L91.3218 12.8193C91.3636 12.4186 91.3824 12.1745 91.3773 12.0914H90.2139C90.0569 13.5896 89.7738 15.1051 89.5549 16.6044L89.4961 16.9303H90.7642C90.9354 15.8138 91.0659 14.8853 91.1627 14.1496C91.5952 13.7556 91.8133 13.4144 92.2501 13.436C92.0557 13.9074 91.9427 14.449 91.9427 15.0057C91.9427 16.2145 92.5513 17.0129 93.4732 17.0129C93.9377 17.0129 94.2942 16.852 94.6409 16.4783L94.5822 16.9287H95.7809L96.7457 10.9798H95.4943V10.9795ZM93.9097 15.8117C93.4788 15.8117 93.2599 15.4896 93.2599 14.8572C93.2599 13.906 93.6681 13.2318 94.243 13.2318C94.6784 13.2318 94.9143 13.5639 94.9143 14.179C94.9143 15.1391 94.4999 15.8117 93.9097 15.8117Z" fill="#003473"/>
<path d="M65.4361 16.5764H64.1691L64.8952 12.0036L63.2748 16.5764H62.4109L62.3041 12.0301L61.5416 16.5764H60.3555L61.3466 10.6274H63.1688L63.219 14.3102L64.4485 10.6274H66.4162L65.4361 16.5764Z" fill="white"/>
<path d="M68.5563 14.4213C68.4237 14.4054 68.3649 14.4019 68.274 14.4019C67.5563 14.4019 67.1925 14.6481 67.1925 15.1371C67.1925 15.4392 67.3697 15.6306 67.6463 15.6306C68.1624 15.6306 68.5342 15.1368 68.5563 14.4213ZM69.4782 16.5762C69.3086 16.5762 68.428 16.5762 68.428 16.5762L68.452 16.0748C68.1319 16.4709 67.7048 16.6601 67.1238 16.6601C66.4376 16.6601 65.9668 16.1207 65.9668 15.3382C65.9668 14.1602 66.7859 13.4747 68.1918 13.4747C68.3347 13.4747 68.5189 13.4868 68.7081 13.5117C68.7472 13.3513 68.7578 13.2833 68.7578 13.1966C68.7578 12.8766 68.5367 12.7576 67.9451 12.7576C67.3247 12.7505 66.814 12.9053 66.6034 12.9746C66.6163 12.8947 66.7792 11.8876 66.7792 11.8876C67.4107 11.7016 67.8273 11.6309 68.2956 11.6309C69.3838 11.6309 69.9598 12.122 69.959 13.0489C69.9608 13.2981 69.9196 13.6059 69.8562 14.0077C69.7462 14.7072 69.51 16.2101 69.4782 16.5762Z" fill="white"/>
<path d="M86.4727 10.7885L86.2648 12.0788C85.8132 11.8504 85.484 11.758 85.1335 11.758C84.187 11.758 83.5238 12.6763 83.5238 13.9866C83.5238 14.8895 83.9692 15.4352 84.7056 15.4352C85.0178 15.4352 85.3629 15.3382 85.7817 15.1298L85.5595 16.4855C85.0933 16.6137 84.7918 16.6599 84.4408 16.6599C83.0764 16.6599 82.2266 15.6739 82.2266 14.0917C82.2266 11.9643 83.4022 10.4785 85.0803 10.4785C85.6328 10.4785 86.2867 10.714 86.4727 10.7885Z" fill="white"/>
<path d="M88.5155 14.4213C88.3836 14.4054 88.3246 14.4019 88.2329 14.4019C87.5157 14.4019 87.1528 14.6481 87.1528 15.1371C87.1528 15.4392 87.3307 15.6306 87.6057 15.6306C88.1224 15.6306 88.4947 15.1368 88.5155 14.4213ZM89.4382 16.5762C89.2696 16.5762 88.3882 16.5762 88.3882 16.5762L88.4117 16.0748C88.0916 16.4709 87.6645 16.6601 87.0848 16.6601C86.3967 16.6601 85.9268 16.1207 85.9268 15.3382C85.9268 14.1602 86.7445 13.4747 88.1504 13.4747C88.2947 13.4747 88.4777 13.4868 88.667 13.5117C88.7061 13.3513 88.7172 13.2833 88.7172 13.1966C88.7172 12.8766 88.4966 12.7576 87.904 12.7576C87.2843 12.7505 86.7742 12.9053 86.5623 12.9746C86.5763 12.8947 86.7386 11.8876 86.7386 11.8876C87.3706 11.7016 87.7872 11.6309 88.255 11.6309C89.3424 11.6309 89.9197 12.122 89.9178 13.0489C89.9208 13.2981 89.8795 13.6059 89.8159 14.0077C89.7064 14.7072 89.4705 16.2101 89.4382 16.5762Z" fill="white"/>
<path d="M75.1085 16.503C74.7615 16.6137 74.4911 16.6606 74.1977 16.6606C73.5506 16.6606 73.1968 16.2861 73.1968 15.5979C73.1879 15.3833 73.2901 14.8222 73.3713 14.3081C73.4444 13.8561 73.9203 11.0068 73.9203 11.0068H75.1797L75.0322 11.7385H75.6785L75.5065 12.9012H74.857C74.7116 13.8224 74.5029 14.9677 74.5005 15.1192C74.5005 15.3698 74.6334 15.4778 74.9346 15.4778C75.0786 15.4778 75.1902 15.464 75.276 15.4324L75.1085 16.503Z" fill="white"/>
<path d="M78.9707 16.464C78.5383 16.5968 78.1198 16.6603 77.6773 16.6597C76.2674 16.6581 75.5332 15.9183 75.5332 14.5013C75.5332 12.8476 76.4675 11.6299 77.7372 11.6299C78.7761 11.6299 79.4394 12.3122 79.4394 13.3814C79.4394 13.7359 79.393 14.0826 79.2843 14.5702H76.7762C76.6913 15.2733 77.1383 15.5659 77.8706 15.5659C78.3215 15.5659 78.7286 15.472 79.1794 15.2606L78.9707 16.464ZM78.2621 13.5949C78.2692 13.4942 78.3959 12.7312 77.6762 12.7312C77.2748 12.7312 76.9876 13.039 76.8711 13.5949H78.2621Z" fill="white"/>
<path d="M70.2378 13.2687C70.2378 13.8811 70.5333 14.3012 71.2028 14.6193C71.7148 14.8612 71.7954 14.9336 71.7954 15.1531C71.7954 15.4552 71.5689 15.5913 71.0674 15.5913C70.6894 15.5913 70.3386 15.5321 69.932 15.4004C69.932 15.4004 69.7659 16.4666 69.7578 16.5174C70.0455 16.5806 70.3027 16.6381 71.0771 16.6607C72.4137 16.6607 73.0309 16.1491 73.0309 15.044C73.0309 14.379 72.7726 13.9888 72.1376 13.6961C71.6067 13.4504 71.5455 13.3956 71.5455 13.1705C71.5455 12.9083 71.7566 12.7738 72.1656 12.7738C72.414 12.7738 72.754 12.8019 73.0764 12.847L73.256 11.7254C72.9284 11.6728 72.4307 11.6304 72.1408 11.6304C70.7242 11.6301 70.234 12.374 70.2378 13.2687Z" fill="white"/>
<path d="M96.1438 16.5763H94.9453L95.0048 16.1254C94.657 16.4988 94.3011 16.66 93.836 16.66C92.916 16.66 92.3066 15.8627 92.3066 14.6523C92.3066 13.0444 93.2512 11.6866 94.3674 11.6866C94.8587 11.6866 95.2313 11.8886 95.5773 12.3467L95.859 10.6279H97.1083L96.1438 16.5763ZM94.275 15.4588C94.8652 15.4588 95.2791 14.7865 95.2791 13.8282C95.2791 13.2134 95.0431 12.8795 94.6082 12.8795C94.0328 12.8795 93.6254 13.5534 93.6254 14.5049C93.6251 15.138 93.8438 15.4588 94.275 15.4588Z" fill="white"/>
<path d="M90.5791 11.7385C90.4208 13.2354 90.139 14.752 89.919 16.2502L89.8613 16.5761H91.1281C91.5813 13.6177 91.6905 13.0407 92.4015 13.1125C92.5153 12.5074 92.7259 11.9772 92.8823 11.7099C92.3517 11.5986 92.0561 11.8999 91.6671 12.4729C91.6981 12.2256 91.7536 11.9845 91.7434 11.7393L90.5791 11.7385Z" fill="white"/>
<path d="M80.1498 11.7385C79.991 13.2354 79.7084 14.752 79.4884 16.2502L79.4307 16.5761H80.6982C81.152 13.6177 81.2607 13.0407 81.9709 13.1125C82.0847 12.5074 82.2952 11.9772 82.4524 11.7099C81.9221 11.5986 81.6252 11.8999 81.2377 12.4729C81.2682 12.2256 81.3243 11.9845 81.3124 11.7393L80.1498 11.7385Z" fill="white"/>
<path d="M96.7002 16.1969C96.7002 15.9871 96.8693 15.8184 97.0766 15.8184C97.2853 15.8184 97.4533 15.9871 97.4533 16.1969C97.4533 16.4056 97.2853 16.576 97.0766 16.576C96.8693 16.5762 96.7002 16.4059 96.7002 16.1969ZM97.0763 16.485C97.2352 16.485 97.3632 16.3557 97.3632 16.1972C97.3632 16.0389 97.2349 15.9093 97.0763 15.9093C96.9183 15.9093 96.79 16.0389 96.79 16.1972C96.7903 16.3557 96.9183 16.485 97.0763 16.485ZM97.0256 16.3627H96.9491V16.0306H97.0893C97.1192 16.0306 97.1478 16.0317 97.1737 16.0476C97.2017 16.0654 97.216 16.0978 97.216 16.131C97.216 16.1685 97.1942 16.2039 97.1588 16.2169L97.2198 16.3629H97.1338L97.0828 16.2312H97.0262V16.3627H97.0256ZM97.0256 16.1742H97.0685C97.0839 16.1742 97.102 16.1764 97.1157 16.168C97.1286 16.1591 97.1351 16.1442 97.1351 16.1299C97.1351 16.1172 97.1276 16.1029 97.1176 16.0956C97.1038 16.0867 97.0823 16.0894 97.0674 16.0894H97.0256V16.1742Z" fill="white"/>
<path d="M179.306 23.7004C179.306 25.4897 177.857 26.9404 176.07 26.9404H114.729C112.942 26.9404 111.493 25.4897 111.493 23.7004V3.34156C111.493 1.55227 112.942 0.101562 114.729 0.101562H176.07C177.857 0.101562 179.306 1.55227 179.306 3.34156V23.7004Z" fill="#ABABAB"/>
<path d="M144.025 12.0594C143.728 12.2079 143.134 12.3564 142.372 12.3564C140.609 12.3564 139.281 11.2407 139.281 9.18632C139.281 7.22504 140.609 5.89502 142.549 5.89502C143.33 5.89502 143.821 6.06188 144.034 6.17258L143.84 6.83489C143.534 6.68531 143.098 6.57461 142.578 6.57461C141.111 6.57461 140.136 7.5134 140.136 9.15716C140.136 10.6924 141.018 11.6773 142.541 11.6773C143.033 11.6773 143.534 11.5755 143.86 11.4173L144.025 12.0594Z" fill="black"/>
<path d="M146.086 10.2921L145.436 12.262H144.601L146.726 5.99561H147.701L149.836 12.262H148.973L148.305 10.2921H146.086ZM148.138 9.65978L147.527 7.85591C147.385 7.44794 147.294 7.07507 147.199 6.71219H147.182C147.088 7.08506 146.987 7.46549 146.865 7.847L146.255 9.65978H148.138Z" fill="black"/>
<path d="M150.645 11.278C151.008 11.5015 151.537 11.6875 152.094 11.6875C152.92 11.6875 153.405 11.2507 153.405 10.6178C153.405 10.0324 153.069 9.69846 152.224 9.3723C151.204 9.00996 150.573 8.47995 150.573 7.59651C150.573 6.62154 151.38 5.89551 152.596 5.89551C153.236 5.89551 153.702 6.04293 153.981 6.20223L153.756 6.8613C153.552 6.74979 153.135 6.5643 152.567 6.5643C151.714 6.5643 151.388 7.07595 151.388 7.50309C151.388 8.08845 151.77 8.37681 152.631 8.71188C153.69 9.12066 154.227 9.63123 154.227 10.5519C154.227 11.5191 153.513 12.3558 152.036 12.3558C151.435 12.3558 150.773 12.1795 150.439 11.957L150.645 11.278Z" fill="black"/>
<path d="M156.142 5.99756V8.61899H159.17V5.99756H159.984V12.264H159.17V9.32612H156.142V12.2643H155.334V5.99756H156.142Z" fill="black"/>
<path d="M168.703 9.0659C168.703 11.2213 167.394 12.365 165.799 12.365C164.144 12.365 162.984 11.0825 162.984 9.18632C162.984 7.19777 164.22 5.89502 165.891 5.89502C167.6 5.89475 168.703 7.2056 168.703 9.0659ZM163.847 9.16796C163.847 10.5061 164.571 11.7057 165.845 11.7057C167.126 11.7057 167.851 10.5244 167.851 9.10289C167.851 7.8563 167.2 6.55517 165.854 6.55517C164.516 6.55517 163.847 7.79204 163.847 9.16796Z" fill="black"/>
<path d="M169.754 12.2621V5.99756H170.636L172.642 9.16763C173.107 9.90257 173.468 10.5627 173.767 11.2034L173.784 11.1937C173.71 10.357 173.691 9.59477 173.691 8.61899V5.99756H174.452V12.264H173.634L171.649 9.0842C171.212 8.38706 170.793 7.67156 170.477 6.99386L170.45 7.00169C170.496 7.79306 170.516 8.54636 170.516 9.58613V12.264H169.754V12.2621H169.754Z" fill="black"/>
<path d="M139.652 15.9246C140.144 15.8509 140.728 15.7944 141.37 15.7944C142.532 15.7944 143.356 16.0644 143.905 16.5753C144.462 17.0861 144.786 17.8121 144.786 18.8257C144.786 19.8471 144.47 20.6841 143.885 21.2609C143.3 21.8476 142.336 22.1621 141.118 22.1621C140.543 22.1621 140.061 22.1348 139.651 22.0884V15.9246H139.652ZM140.459 21.4669C140.664 21.5039 140.961 21.5136 141.277 21.5136C143.003 21.5136 143.941 20.5464 143.941 18.8549C143.951 17.375 143.116 16.4373 141.407 16.4373C140.99 16.4373 140.674 16.4743 140.459 16.521V21.4669Z" fill="black"/>
<path d="M149.077 19.1691H146.643V21.4271H149.354V22.1072H145.836V15.8408H149.216V16.5207H146.643V18.4995H149.076V19.1691H149.077Z" fill="black"/>
<path d="M150.403 15.8408H151.21V21.4271H153.884V22.1072H150.403V15.8408Z" fill="black"/>
<path d="M155.592 15.8408V22.1072H154.785V15.8408H155.592Z" fill="black"/>
<path d="M158.381 22.1072L156.337 15.8408H157.21L158.185 18.9264C158.453 19.7734 158.685 20.5364 158.852 21.2702H158.871C159.048 20.5461 159.308 19.7561 159.587 18.9361L160.644 15.8408H161.509L159.271 22.1072H158.381Z" fill="black"/>
<path d="M165.426 19.1691H162.994V21.4271H165.705V22.1072H162.186V15.8408H165.564V16.5207H162.992V18.4995H165.426V19.1691H165.426Z" fill="black"/>
<path d="M166.754 15.9246C167.163 15.8409 167.747 15.7944 168.305 15.7944C169.168 15.7944 169.727 15.9518 170.115 16.3053C170.431 16.5847 170.607 17.0121 170.607 17.4957C170.607 18.3227 170.087 18.8724 169.428 19.0938V19.1211C169.911 19.288 170.198 19.7345 170.347 20.3852C170.551 21.2592 170.7 21.8632 170.83 22.1057H169.994C169.891 21.9272 169.754 21.3894 169.575 20.6085C169.391 19.7445 169.057 19.4203 168.325 19.3908H167.562V22.1038H166.756V15.9246H166.754ZM167.562 18.7793H168.387C169.249 18.7793 169.798 18.3054 169.798 17.5889C169.798 16.7813 169.215 16.4276 168.36 16.4179C167.97 16.4179 167.692 16.4549 167.562 16.4937V18.7793Z" fill="black"/>
<path d="M173.04 22.1072V19.4467L171.062 15.8408H171.981L172.865 17.5688C173.106 18.0448 173.292 18.4253 173.486 18.8621H173.503C173.681 18.4525 173.895 18.0448 174.135 17.5688L175.037 15.8408H175.954L173.858 19.4369V22.1072H173.04Z" fill="black"/>
<path d="M134.869 18.2255C134.625 18.0076 134.318 17.9069 134.005 17.942C133.482 18.0022 132.794 18.1437 132.068 18.2933C131.087 18.4953 130.071 18.705 129.295 18.7558C128.622 18.7963 127.4 18.6219 127.039 18.4334C126.794 18.3033 126.658 18.1478 126.58 18.0079H128.088C128.71 18.0079 129.216 17.5014 129.216 16.8777V15.9924C129.216 15.3689 128.71 14.8624 128.088 14.8624H123.959C123.783 14.8581 121.676 14.8176 120.217 16.0642C119.958 16.2856 119.752 16.4935 119.589 16.6836C119.417 16.464 119.149 16.3266 118.852 16.3266H117.507C117.282 16.3266 117.102 16.5089 117.102 16.7324V22.4529C117.102 22.5598 117.144 22.6646 117.22 22.7383C117.295 22.8161 117.398 22.8587 117.507 22.8587H118.851C119.372 22.8587 119.797 22.4335 119.797 21.9129V21.6003C120.198 21.6259 121.112 21.7266 123.042 22.0879C125.322 22.5169 126.745 22.6649 127.866 22.6627C128.669 22.6627 129.317 22.589 130.014 22.4896C130.878 22.3695 131.963 22.0606 132.919 21.7906C133.362 21.6645 133.78 21.546 134.151 21.4528C135.149 21.2004 135.297 20.5691 135.297 20.216V19.1865C135.297 18.8214 135.138 18.4642 134.869 18.2255ZM118.987 21.9129C118.987 21.9885 118.926 22.049 118.851 22.049H117.91V17.1382H118.851C118.926 17.1382 118.987 17.2001 118.987 17.274V21.9129ZM134.489 20.2179C134.489 20.3032 134.489 20.5327 133.953 20.6685C133.571 20.7635 133.148 20.8839 132.699 21.0117C131.767 21.276 130.711 21.5751 129.903 21.6896C128.312 21.9151 126.986 22.0061 123.192 21.2957C121.242 20.9285 120.274 20.8175 119.797 20.7927V17.7846C119.813 17.7673 119.826 17.7476 119.838 17.7266C119.94 17.5362 120.196 17.1493 120.743 16.6817C121.991 15.6176 123.917 15.6719 123.938 15.674C123.943 15.674 123.948 15.674 123.954 15.674H128.09C128.265 15.674 128.409 15.8174 128.409 15.9924V16.8798C128.409 17.0564 128.266 17.1984 128.09 17.1984H123.954C123.73 17.1984 123.549 17.3791 123.549 17.6043C123.549 17.8257 123.73 18.0079 123.954 18.0079H125.725C125.809 18.3403 126.037 18.8201 126.666 19.1481C127.241 19.4511 128.668 19.6066 129.347 19.5618C130.183 19.5094 131.225 19.2955 132.235 19.086C132.943 18.9402 133.614 18.8041 134.102 18.7458C134.205 18.7345 134.285 18.7847 134.334 18.8298C134.432 18.9151 134.493 19.055 134.493 19.1867V20.2179H134.489Z" fill="black"/>
<path d="M134.634 5.70068H120.428C119.856 5.70068 119.392 6.1667 119.392 6.73964V13.41C119.392 13.9821 119.856 14.4487 120.428 14.4487H134.634C135.206 14.4487 135.672 13.9819 135.672 13.41V6.73964C135.672 6.1667 135.206 5.70068 134.634 5.70068ZM132.628 13.6381H122.435C122.328 12.4312 121.391 11.4595 120.199 11.301V8.73764C121.354 8.58428 122.27 7.66574 122.423 6.51122H132.639C132.793 7.66763 133.708 8.58401 134.863 8.73764V11.301C133.671 11.4592 132.734 12.4312 132.628 13.6381ZM134.863 6.73964V7.91819C134.156 7.77833 133.597 7.22024 133.459 6.51149H134.634C134.76 6.51149 134.863 6.61355 134.863 6.73964ZM120.428 6.51149H121.604C121.466 7.22024 120.908 7.7786 120.201 7.91819V6.73964C120.199 6.61355 120.302 6.51149 120.428 6.51149ZM120.199 13.41V12.1202C120.943 12.266 121.523 12.8778 121.622 13.6371H120.427C120.302 13.6381 120.199 13.5361 120.199 13.41ZM134.634 13.6381H133.439C133.539 12.8778 134.118 12.2671 134.863 12.1213V13.4097C134.863 13.5361 134.76 13.6381 134.634 13.6381Z" fill="black"/>
<path d="M127.552 7.17725C125.956 7.17725 124.659 8.4773 124.659 10.0743C124.659 11.6733 125.956 12.9714 127.552 12.9714C129.146 12.9714 130.445 11.6733 130.445 10.0743C130.445 8.47649 129.148 7.17725 127.552 7.17725ZM127.552 12.162C126.402 12.162 125.468 11.2251 125.468 10.0746C125.468 8.92415 126.402 7.98806 127.552 7.98806C128.702 7.98806 129.637 8.92415 129.637 10.0746C129.637 11.2254 128.702 12.162 127.552 12.162Z" fill="black"/>
<path d="M122.895 8.8291C122.209 8.8291 121.65 9.38719 121.65 10.0749C121.65 10.7612 122.21 11.3207 122.895 11.3207C123.58 11.3207 124.138 10.7612 124.138 10.0749C124.138 9.38746 123.581 8.8291 122.895 8.8291ZM122.895 10.5109C122.656 10.5109 122.46 10.3146 122.46 10.0749C122.46 9.83431 122.656 9.6391 122.895 9.6391C123.134 9.6391 123.33 9.83512 123.33 10.0749C123.33 10.3146 123.136 10.5109 122.895 10.5109Z" fill="black"/>
<path d="M132.208 8.8291C131.523 8.8291 130.965 9.38719 130.965 10.0749C130.965 10.7612 131.523 11.3207 132.208 11.3207C132.894 11.3207 133.453 10.7612 133.453 10.0749C133.453 9.38746 132.894 8.8291 132.208 8.8291ZM132.208 10.5109C131.968 10.5109 131.774 10.3146 131.774 10.0749C131.774 9.83431 131.968 9.6391 132.208 9.6391C132.448 9.6391 132.644 9.83512 132.644 10.0749C132.644 10.3146 132.448 10.5109 132.208 10.5109Z" fill="black"/>
</g>
<defs>
<clipPath id="clip0_328_1702">
<rect width="180.474" height="27" fill="white"/>
</clipPath>
</defs>
</svg>
